# xmcd
#
# Track frame offsets:
#	150
#	19174
#	42262
#	63012
#	87538
#	112238
#	139546
#	162148
#	178465
#
# Disc length: 2808 seconds
#
# Revision: 1
# Processed by: cddbd v1.5.2PL0 Copyright (c) Steve Scherf et al.
# Submitted via: audiograbber 1.83.01
#
DISCID=790af609
DTITLE=Teddy Pendergrass - Life Is a Song Worth Singing
DYEAR=1978
DGENRE=Soul
TTITLE0=Life Is a Song Worth Singing
TTITLE1=Only You
TTITLE2=Cold, Cold World
TTITLE3=Get Up, Get Down, Get Funky, Get Loose
TTITLE4=Close the Door
TTITLE5=It Don't Hurt Me Now
TTITLE6=When Somebody Loves You Back
TTITLE7=Only You (Single Version)
TTITLE8=Get Down, Get Funky (Disco Version)
EXTD=
EXTT0=
EXTT1=
EXTT2=
EXTT3=
EXTT4=
EXTT5=
EXTT6=
EXTT7=
EXTT8=
PLAYORDER=
